<svg xmlns="http://www.w3.org/2000/svg" xmlns:xlink="http://www.w3.org/1999/xlink" x="0px" y="0px" viewBox="0 0 24 24" width="24" height="24"><g class="nc-icon-wrapper" fill="#444444"><path d="M20,10V8A8,8,0,0,0,4,8v2a4.441,4.441,0,0,1-1.547,3.193A4.183,4.183,0,0,0,1,16c0,2.5,4.112,4,11,4s11-1.5,11-4a4.183,4.183,0,0,0-1.453-2.807A4.441,4.441,0,0,1,20,10Z" fill="#444444"/> <path data-color="color-2" d="M9.145,21.9a2.992,2.992,0,0,0,5.71,0c-.894.066-1.844.1-2.855.1S10.039,21.968,9.145,21.9Z" fill="#444444"/></g></svg>