<svg xmlns="http://www.w3.org/2000/svg" xmlns:xlink="http://www.w3.org/1999/xlink" x="0px" y="0px" viewBox="0 0 24 24" width="24" height="24"><g class="nc-icon-wrapper" fill="#444444"><rect data-color="color-2" x="4" y="10" width="4" height="3" fill="#444444"/> <rect data-color="color-2" x="10" y="10" width="4" height="3" fill="#444444"/> <rect data-color="color-2" x="4" y="15" width="4" height="3" fill="#444444"/> <rect data-color="color-2" x="10" y="15" width="4" height="3" fill="#444444"/> <rect data-color="color-2" x="16" y="10" width="4" height="3" fill="#444444"/> <path d="M23,3H18V1a1,1,0,0,0-2,0V3H8V1A1,1,0,0,0,6,1V3H1A1,1,0,0,0,0,4V22a1,1,0,0,0,1,1H23a1,1,0,0,0,1-1V4A1,1,0,0,0,23,3ZM22,21H2V7H22Z" fill="#444444"/></g></svg>