<svg xmlns="http://www.w3.org/2000/svg" xmlns:xlink="http://www.w3.org/1999/xlink" x="0px" y="0px" viewBox="0 0 24 24" width="24" height="24"><g class="nc-icon-wrapper" fill="#444444"><rect x="22" y="11" fill="#444444" width="2" height="6"/> <path data-color="color-2" fill="#444444" d="M13.241,15.73C12.847,15.91,12.43,16,12,16s-0.847-0.09-1.24-0.269L4,12.658V18 c0,2.626,4.024,4,8,4s8-1.374,8-4v-5.341L13.241,15.73z"/> <path fill="#444444" d="M23.414,7.09l-11-5c-0.263-0.119-0.564-0.119-0.827,0l-11,5C0.229,7.252,0,7.607,0,8s0.229,0.748,0.586,0.91 l11,5C11.718,13.97,11.859,14,12,14s0.282-0.03,0.414-0.09l11-5C23.771,8.748,24,8.393,24,8S23.771,7.252,23.414,7.09z"/></g></svg>