<svg xmlns="http://www.w3.org/2000/svg" xmlns:xlink="http://www.w3.org/1999/xlink" x="0px" y="0px" viewBox="0 0 24 24" width="24" height="24"><g class="nc-icon-wrapper" fill="#444444"><path fill="#444444" d="M20.4,6.1c-1.1-0.5-2.2-0.8-3.4-0.8c-1.6,0-3,0.5-4.3,0.9c-0.8,0.3-1.6,0.5-2.2,0.5c-0.4,0-0.6-0.1-0.7-0.3 c0-0.1,0.1-0.6,0.2-0.9c0.3-0.9,0.6-2-0.2-3.1c-0.5-0.6-1.3-1-2.2-1c-0.9,0-1.7,0.3-2.5,0.8C1.9,4.4,0,8.1,0,12c0,6.6,5.4,12,12,12 c5.3,0,10.1-3.6,11.6-8.8C23.7,14.6,25.1,8.4,20.4,6.1z M3,12c0-1.1,0.9-2,2-2s2,0.9,2,2s-0.9,2-2,2S3,13.1,3,12z M7.5,19 c-1.1,0-2-0.9-2-2s0.9-2,2-2s2,0.9,2,2S8.6,19,7.5,19z M13,21c-1.1,0-2-0.9-2-2s0.9-2,2-2s2,0.9,2,2S14.1,21,13,21z M17,15 c-1.7,0-3-1.3-3-3s1.3-3,3-3s3,1.3,3,3S18.7,15,17,15z"/></g></svg>