<svg xmlns="http://www.w3.org/2000/svg" xmlns:xlink="http://www.w3.org/1999/xlink" x="0px" y="0px" viewBox="0 0 16 16" width="16" height="16"><g class="nc-icon-wrapper" fill="#444444"><path data-color="color-2" fill="#444444" d="M10,8H8v2H6V8H4V6h2V4h2v2h2V8z"/> <path fill="#444444" d="M7,14c-3.86,0-7-3.14-7-7s3.14-7,7-7s7,3.14,7,7S10.86,14,7,14z M7,2C4.243,2,2,4.243,2,7s2.243,5,5,5 s5-2.243,5-5S9.757,2,7,2z"/> <path data-color="color-2" fill="#444444" d="M15.707,14.293L13.314,11.9c-0.411,0.529-0.885,1.003-1.414,1.414l2.393,2.393 C14.488,15.902,14.744,16,15,16s0.512-0.098,0.707-0.293C16.098,15.316,16.098,14.684,15.707,14.293z"/> </g></svg>