<svg xmlns="http://www.w3.org/2000/svg" xmlns:xlink="http://www.w3.org/1999/xlink" x="0px" y="0px" viewBox="0 0 16 16" width="16" height="16"><g class="nc-icon-wrapper" fill="#444444"><path fill="#444444" d="M13.9,0.5C13.7,0.2,13.4,0,13,0H3C2.6,0,2.3,0.2,2.1,0.5C0,4.5,0,4.7,0,5c0,1.1,0.9,2,2,2v8c0,0.6,0.4,1,1,1 h10c0.6,0,1-0.4,1-1V7c1.1,0,2-0.9,2-2C16,4.7,16,4.5,13.9,0.5z M10,14v-4H6v4H4V6.7C4.3,6.9,4.6,7,5,7c0.6,0,1.1-0.3,1.5-0.7 C6.9,6.7,7.4,7,8,7s1.1-0.3,1.5-0.7C9.9,6.7,10.4,7,11,7c0.4,0,0.7-0.1,1-0.3V14H10z"></path></g></svg>