<svg xmlns="http://www.w3.org/2000/svg" xmlns:xlink="http://www.w3.org/1999/xlink" x="0px" y="0px" viewBox="0 0 24 24" width="24" height="24"><g class="nc-icon-wrapper" fill="#444444"><path d="M23.58.424A1,1,0,0,0,22.819.13C8.791.862,3.609,13.358,3.559,13.484a1,1,0,0,0,.22,1.08l5.657,5.657a1,1,0,0,0,1.085.218c.125-.051,12.554-5.291,13.348-19.253A1,1,0,0,0,23.58.424Zm-8.166,10.99a2,2,0,1,1,0-2.828A2,2,0,0,1,15.414,11.414Z" fill="#444444"/> <path data-color="color-2" d="M1.113,18.844a2.844,2.844,0,1,1,4.022,4.022C4.024,23.977,0,24,0,24S0,19.954,1.113,18.844Z" fill="#444444"/> <path id="color-2" d="M10.357,2.341A8.911,8.911,0,0,0,2.522,4.825a9.084,9.084,0,0,0-1.384,1.8,1,1,0,0,0,.155,1.215l1.989,1.99A26.623,26.623,0,0,1,10.357,2.341Z" fill="#444444"/> <path id="color-3" d="M21.659,13.643a8.911,8.911,0,0,1-2.484,7.835,9.084,9.084,0,0,1-1.8,1.384,1,1,0,0,1-1.215-.155l-1.99-1.989A26.623,26.623,0,0,0,21.659,13.643Z" fill="#444444"/></g></svg>